<svg width="36" height="36" viewBox="0 0 36 36" fill="none" xmlns="http://www.w3.org/2000/svg">
<g clip-path="url(#clip0_1533_898)">
<path d="M0 18C0 8.05887 8.05887 0 18 0V0C27.9411 0 36 8.05887 36 18V18C36 27.9411 27.9411 36 18 36V36C8.05887 36 0 27.9411 0 18V18Z" fill="white"/>
<path fill-rule="evenodd" clip-rule="evenodd" d="M0 0H21.6V16.8H0V0Z" fill="#1A47B8"/>
<path fill-rule="evenodd" clip-rule="evenodd" d="M21.6 0V2.4H50.4V0H21.6ZM21.6 4.8V7.2H50.4V4.8H21.6ZM21.6 9.6V12H50.4V9.6H21.6ZM21.6 14.4V16.8H50.4V14.4H21.6ZM0 19.2V21.6H50.4V19.2H0ZM0 24V26.4H50.4V24H0ZM0 28.8V31.2H50.4V28.8H0ZM0 33.6V36H50.4V33.6H0Z" fill="#F93939"/>
<path fill-rule="evenodd" clip-rule="evenodd" d="M2.3999 2.3999V4.7999H4.7999V2.3999H2.3999ZM7.1999 2.3999V4.7999H9.5999V2.3999H7.1999ZM11.9999 2.3999V4.7999H14.3999V2.3999H11.9999ZM16.7999 2.3999V4.7999H19.1999V2.3999H16.7999ZM14.3999 4.7999V7.1999H16.7999V4.7999H14.3999ZM9.5999 4.7999V7.1999H11.9999V4.7999H9.5999ZM4.7999 4.7999V7.1999H7.1999V4.7999H4.7999ZM2.3999 7.1999V9.5999H4.7999V7.1999H2.3999ZM7.1999 7.1999V9.5999H9.5999V7.1999H7.1999ZM11.9999 7.1999V9.5999H14.3999V7.1999H11.9999ZM16.7999 7.1999V9.5999H19.1999V7.1999H16.7999ZM2.3999 11.9999V14.3999H4.7999V11.9999H2.3999ZM7.1999 11.9999V14.3999H9.5999V11.9999H7.1999ZM11.9999 11.9999V14.3999H14.3999V11.9999H11.9999ZM16.7999 11.9999V14.3999H19.1999V11.9999H16.7999ZM14.3999 9.5999V11.9999H16.7999V9.5999H14.3999ZM9.5999 9.5999V11.9999H11.9999V9.5999H9.5999ZM4.7999 9.5999V11.9999H7.1999V9.5999H4.7999Z" fill="white"/>
</g>
<defs>
<clipPath id="clip0_1533_898">
<path d="M0 18C0 8.05887 8.05887 0 18 0V0C27.9411 0 36 8.05887 36 18V18C36 27.9411 27.9411 36 18 36V36C8.05887 36 0 27.9411 0 18V18Z" fill="white"/>
</clipPath>
</defs>
</svg>
