<svg width="31" height="33" viewBox="0 0 31 33" fill="none" xmlns="http://www.w3.org/2000/svg">
<path d="M23.391 14.3172V13.6741C23.3935 12.6093 22.9994 11.5869 22.295 10.8309L20.5367 8.93482C20.319 8.70132 20.1972 8.38539 20.198 8.05639V7.41286H20.3944C20.7292 7.3978 21.0449 7.24223 21.2723 6.98016C21.4998 6.71809 21.6205 6.37083 21.6081 6.01428V3.46108C21.6205 3.10453 21.4998 2.75728 21.2723 2.49521C21.0449 2.23314 20.7292 2.07757 20.3944 2.0625H10.1747C9.83984 2.07757 9.5242 2.23313 9.29675 2.4952C9.06931 2.75727 8.94858 3.10453 8.96094 3.46108V6.01428C8.94858 6.37083 9.06931 6.71809 9.29675 6.98016C9.52419 7.24223 9.83984 7.3978 10.1747 7.41286H10.6033V8.09391C10.6037 8.25817 10.5735 8.42088 10.5144 8.57265C10.4554 8.72441 10.3687 8.86222 10.2594 8.97812L8.72252 10.6139C8.36838 10.9888 8.08762 11.4348 7.89649 11.9261C7.70536 12.4173 7.60765 12.944 7.60902 13.4757V28.656C7.60969 29.2608 7.83571 29.8408 8.23751 30.2685C8.63931 30.6962 9.18408 30.9368 9.7523 30.9375H21.2477C21.8159 30.9368 22.3607 30.6962 22.7625 30.2685C23.1643 29.8408 23.3903 29.2608 23.391 28.656V17.8958C23.391 17.759 23.3399 17.6279 23.2491 17.5312C23.1582 17.4345 23.035 17.3802 22.9066 17.3802C22.7781 17.3802 22.6549 17.4345 22.5641 17.5312C22.4732 17.6279 22.4222 17.759 22.4222 17.8958V26.1715H8.5778V14.8328H22.9066C22.9702 14.8328 23.0332 14.8195 23.092 14.7936C23.1507 14.7677 23.2041 14.7297 23.2491 14.6818C23.2941 14.6339 23.3298 14.5771 23.3541 14.5145C23.3785 14.4519 23.391 14.3849 23.391 14.3172ZM9.92969 6.01428V3.46108C9.92969 3.26545 10.0442 3.09375 10.1747 3.09375H20.3944C20.5249 3.09375 20.6394 3.26545 20.6394 3.46108V6.01428C20.6394 6.20991 20.5249 6.38161 20.3944 6.38161H10.1747C10.0442 6.38161 9.92969 6.20991 9.92969 6.01428ZM22.4222 27.2027V28.656C22.4218 28.9874 22.298 29.3052 22.0778 29.5396C21.8576 29.774 21.5591 29.9059 21.2477 29.9062H9.7523C9.44092 29.9059 9.1424 29.774 8.92222 29.5396C8.70203 29.3052 8.57817 28.9874 8.5778 28.656V27.2027H22.4222ZM8.5778 13.4757C8.57677 13.0795 8.64956 12.687 8.79198 12.3209C8.93439 11.9548 9.1436 11.6224 9.40748 11.343L10.9448 9.70699C11.1442 9.49552 11.3023 9.2441 11.41 8.96724C11.5176 8.69037 11.5727 8.39355 11.572 8.09391V7.41286H19.2293V8.05639C19.2279 8.65668 19.4501 9.23309 19.8471 9.65941L21.6053 11.5555C22.1304 12.1187 22.4242 12.8806 22.4222 13.6741V13.8015H8.5778V13.4757Z" fill="white"/>
<path d="M11.2982 16.6314C11.0413 16.6317 10.7951 16.7405 10.6135 16.9338C10.4319 17.1271 10.3297 17.3893 10.3294 17.6627V23.3416C10.3297 23.615 10.4319 23.8771 10.6135 24.0704C10.7951 24.2638 11.0413 24.3725 11.2982 24.3728H13.914C14.1708 24.3725 14.417 24.2638 14.5987 24.0704C14.7803 23.8771 14.8824 23.615 14.8827 23.3416V17.6627C14.8824 17.3893 14.7803 17.1271 14.5987 16.9338C14.417 16.7405 14.1708 16.6317 13.914 16.6314H11.2982ZM11.2982 23.3416V17.6627H13.914L13.9145 23.3416H11.2982Z" fill="white"/>
<path d="M20.3139 21.3362H17.1286C17.0001 21.3362 16.8769 21.3906 16.7861 21.4873C16.6953 21.584 16.6442 21.7151 16.6442 21.8519C16.6442 21.9886 16.6953 22.1198 16.7861 22.2165C16.8769 22.3132 17.0001 22.3675 17.1286 22.3675H20.3139C20.4424 22.3675 20.5656 22.3132 20.6564 22.2165C20.7473 22.1198 20.7983 21.9886 20.7983 21.8519C20.7983 21.7151 20.7473 21.584 20.6564 21.4873C20.5656 21.3906 20.4424 21.3362 20.3139 21.3362Z" fill="white"/>
<path d="M20.3139 18.6367H17.1286C17.0001 18.6367 16.8769 18.691 16.7861 18.7877C16.6953 18.8844 16.6442 19.0156 16.6442 19.1523C16.6442 19.2891 16.6953 19.4202 16.7861 19.5169C16.8769 19.6136 17.0001 19.668 17.1286 19.668H20.3139C20.4424 19.668 20.5656 19.6136 20.6564 19.5169C20.7473 19.4202 20.7983 19.2891 20.7983 19.1523C20.7983 19.0156 20.7473 18.8844 20.6564 18.7877C20.5656 18.691 20.4424 18.6367 20.3139 18.6367Z" fill="white"/>
</svg>
