<svg width="20" height="25" viewBox="0 0 20 25" fill="none" xmlns="http://www.w3.org/2000/svg">
<g clip-path="url(#clip0_84_2160)">
<path d="M19.4751 18.6708L17.7816 13.9708C17.7031 13.7542 17.4677 13.6417 17.2529 13.7208L13.7586 15.0042L11.2183 7.95833C11.747 7.75417 12.2757 7.58333 12.792 7.44583L14.9399 13.3958C15.0183 13.6125 15.2538 13.725 15.4686 13.6458C15.6833 13.5667 15.7949 13.3292 15.7164 13.1125L12.6764 4.68333C12.5649 4.375 12.3336 4.11667 12.0362 3.97917C11.937 3.93333 11.8586 3.85 11.8214 3.74583C11.7842 3.64167 11.7883 3.52917 11.8338 3.425C11.9742 3.12083 11.9866 2.78333 11.8751 2.47083L11.429 1.22917C11.2762 0.8125 10.9746 0.475 10.574 0.2875C10.1733 0.1 9.72312 0.0791667 9.31008 0.233333C8.55421 0.5125 8.12051 1.29167 8.24442 2.06667L7.93877 2.02083V0.416667C7.93877 0.1875 7.7529 0 7.52573 0H3.39116C3.16399 0 2.97812 0.1875 2.97812 0.416667V1.30417L2.6229 1.25417C2.39986 1.22083 2.18921 1.37917 2.15616 1.60833C2.12312 1.8375 2.28008 2.04583 2.50725 2.07917L2.97812 2.14583V2.97917L2.63116 2.92083C2.40399 2.88333 2.19334 3.0375 2.15616 3.2625C2.11899 3.49167 2.27181 3.70417 2.49486 3.74167L2.97399 3.82083V4.99583H2.56095C1.42094 4.99583 0.495728 5.92917 0.495728 7.07917V12.9125C0.495728 13.1417 0.681597 13.3292 0.908771 13.3292C1.13594 13.3292 1.32181 13.1417 1.32181 12.9125V7.07917C1.32181 6.39167 1.87942 5.82917 2.56095 5.82917H8.34355C9.02508 5.82917 9.58268 6.39167 9.58268 7.07917V20.4167C9.58268 20.6458 9.76855 20.8333 9.99573 20.8333C10.2229 20.8333 10.4088 20.6458 10.4088 20.4167V8.17083L12.9779 15.2875L11.8131 15.7167C11.7099 15.7542 11.6272 15.8333 11.5818 15.9333C11.5364 16.0333 11.5322 16.15 11.5694 16.25L13.2629 20.95C13.3249 21.1208 13.4818 21.225 13.6512 21.225C13.6966 21.225 13.7462 21.2167 13.7916 21.2L14.3203 21.0042C15.0638 21.7667 15.6503 22.6917 16.0138 23.6958L16.0881 23.9042C16.3318 24.5792 16.9679 25 17.6412 25C17.827 25 18.017 24.9667 18.2029 24.9C19.0579 24.5875 19.504 23.6292 19.1901 22.7625L19.1157 22.5542C18.7522 21.55 18.6118 20.4625 18.6944 19.3958L19.2231 19.2C19.3264 19.1625 19.409 19.0833 19.4544 18.9833C19.4999 18.8833 19.504 18.7667 19.4668 18.6667L19.4751 18.6708ZM9.59095 1.01667C9.79747 0.941667 10.0246 0.95 10.2229 1.04583C10.4212 1.14167 10.574 1.30833 10.6483 1.51667L11.0944 2.75833C11.1316 2.8625 11.1275 2.975 11.082 3.075C10.9416 3.37917 10.9292 3.71667 11.0407 4.02917C11.1523 4.34167 11.3836 4.59167 11.6809 4.73333C11.7801 4.77917 11.8586 4.86667 11.8957 4.96667L12.507 6.65833C11.9866 6.79583 11.462 6.97083 10.9333 7.175L10.3427 5.54167C10.3055 5.4375 10.3096 5.325 10.3551 5.225C10.4955 4.92083 10.5079 4.58333 10.3964 4.27083C10.2849 3.95833 10.0536 3.70833 9.75616 3.56667C9.65703 3.52083 9.58268 3.4375 9.54138 3.33333L9.09116 2.09167C8.93421 1.65833 9.15725 1.17917 9.58268 1.025L9.59095 1.01667ZM3.80421 0.833333H7.10855V1.9L3.80421 1.425V0.833333ZM3.80421 2.26667L7.10855 2.74167V3.675L3.80421 3.12083V2.26667ZM3.80421 5V3.9625L7.10855 4.51667V4.99583H3.80421V5ZM8.34768 5H7.93464V2.8625L8.28986 2.9125C8.28986 2.9125 8.33116 2.91667 8.34768 2.91667C8.40138 2.91667 8.45508 2.90417 8.50464 2.88333L8.76899 3.60833C8.88051 3.92083 9.11181 4.17083 9.40921 4.3125C9.61573 4.40833 9.7066 4.65833 9.60747 4.86667C9.53725 5.02083 9.50008 5.18333 9.49182 5.34583C9.16551 5.125 8.77312 4.99583 8.34768 4.99583V5ZM12.4864 16.3583L17.1455 14.65L18.5581 18.5667L13.899 20.275L12.4864 16.3583ZM18.3433 22.8417L18.4177 23.05C18.5746 23.4833 18.3516 23.9625 17.9262 24.1167C17.7196 24.1958 17.4925 24.1833 17.2942 24.0875C17.0959 23.9917 16.9431 23.825 16.8688 23.6167L16.7944 23.4083C16.4351 22.4083 15.8775 21.4833 15.1712 20.6917L17.8601 19.7042C17.8229 20.7667 17.9881 21.8375 18.3475 22.8375L18.3433 22.8417Z" fill="white"/>
<path d="M10 21.6667C9.77283 21.6667 9.58696 21.8542 9.58696 22.0834V22.9167C9.58696 23.6042 9.02935 24.1667 8.34783 24.1667H2.56522C1.8837 24.1667 1.32609 23.6042 1.32609 22.9167V14.5834C1.32609 14.3542 1.14022 14.1667 0.913043 14.1667C0.68587 14.1667 0.5 14.3542 0.5 14.5834V22.9167C0.5 24.0667 1.42522 25 2.56522 25H8.34783C9.48783 25 10.413 24.0667 10.413 22.9167V22.0834C10.413 21.8542 10.2272 21.6667 10 21.6667Z" fill="white"/>
<path d="M5.45651 17.9166C6.59651 17.9166 7.52173 16.9833 7.52173 15.8333C7.52173 14.9 6.79064 12.0833 5.45651 12.0833C4.12238 12.0833 3.3913 14.9 3.3913 15.8333C3.3913 16.9833 4.31651 17.9166 5.45651 17.9166ZM5.45651 12.9166C5.9439 12.9166 6.69564 14.8541 6.69564 15.8333C6.69564 16.5208 6.13804 17.0833 5.45651 17.0833C4.77499 17.0833 4.21738 16.5208 4.21738 15.8333C4.21738 14.8541 4.96912 12.9166 5.45651 12.9166Z" fill="white"/>
<path d="M6.28258 10C6.50976 10 6.69563 9.81252 6.69563 9.58335C6.69563 9.35419 6.50976 9.16669 6.28258 9.16669H4.21736C3.99019 9.16669 3.80432 9.35419 3.80432 9.58335C3.80432 9.81252 3.99019 10 4.21736 10H6.28258Z" fill="white"/>
<path d="M2.97827 20C2.97827 20.2291 3.16414 20.4166 3.39131 20.4166H7.52175C7.74892 20.4166 7.93479 20.2291 7.93479 20C7.93479 19.7708 7.74892 19.5833 7.52175 19.5833H3.39131C3.16414 19.5833 2.97827 19.7708 2.97827 20Z" fill="white"/>
<path d="M4.63045 21.6667C4.40328 21.6667 4.21741 21.8542 4.21741 22.0834C4.21741 22.3125 4.40328 22.5 4.63045 22.5H6.28262C6.5098 22.5 6.69567 22.3125 6.69567 22.0834C6.69567 21.8542 6.5098 21.6667 6.28262 21.6667H4.63045Z" fill="white"/>
</g>
<defs>
<clipPath id="clip0_84_2160">
<rect width="19" height="25" fill="white" transform="translate(0.5)"/>
</clipPath>
</defs>
</svg>
