<svg width="34" height="33" viewBox="0 0 34 33" fill="none" xmlns="http://www.w3.org/2000/svg">
<path d="M11.9727 18.1868V22.6153C11.9727 23.7863 12.4378 24.9093 13.2658 25.7372C14.0938 26.5652 15.2168 27.0304 16.3877 27.0304C17.5586 27.0304 18.6816 26.5652 19.5096 25.7372C20.3376 24.9093 20.8027 23.7863 20.8027 22.6153V18.1868C20.8027 17.0158 20.3376 15.8928 19.5096 15.0649C18.6816 14.2369 17.5586 13.7717 16.3877 13.7717C15.2168 13.7717 14.0938 14.2369 13.2658 15.0649C12.4378 15.8928 11.9727 17.0158 11.9727 18.1868ZM16.3854 14.5445C17.3516 14.5445 18.2781 14.9282 18.9614 15.6112C19.6448 16.2942 20.0289 17.2206 20.0293 18.1868V22.6153C20.0293 23.5812 19.6456 24.5074 18.9627 25.1903C18.2798 25.8733 17.3535 26.2569 16.3877 26.2569C15.4219 26.2569 14.4956 25.8733 13.8127 25.1903C13.1298 24.5074 12.7461 23.5812 12.7461 22.6153V18.1868C12.7465 17.2214 13.1299 16.2956 13.8123 15.6127C14.4946 14.9299 15.4201 14.5457 16.3854 14.5445Z" fill="white"/>
<path d="M16.3819 23.3385C16.9402 23.3378 17.4755 23.1156 17.8703 22.7207C18.265 22.3258 18.487 21.7905 18.4876 21.2322C18.4876 20.7149 18.3338 20.3482 18.148 19.956C17.857 19.3421 16.7494 17.7049 16.7021 17.6357C16.6667 17.5835 16.619 17.5408 16.5632 17.5113C16.5074 17.4819 16.4452 17.4666 16.3821 17.4668C16.319 17.4666 16.2569 17.4818 16.2011 17.5111C16.1453 17.5405 16.0975 17.5831 16.062 17.6352C16.0148 17.7048 14.9022 19.3469 14.6147 19.958C14.4507 20.3074 14.2758 20.7226 14.2758 21.2325C14.2764 21.7908 14.4985 22.3262 14.8933 22.721C15.2882 23.1158 15.8235 23.3379 16.3819 23.3385ZM15.3145 20.2863C15.4771 19.9407 15.9986 19.1278 16.3816 18.5475C16.7341 19.0817 17.2742 19.9182 17.4491 20.2871C17.6287 20.6663 17.7141 20.9044 17.7141 21.2322C17.7141 21.5856 17.5737 21.9245 17.3238 22.1744C17.0739 22.4243 16.735 22.5647 16.3816 22.5647C16.0282 22.5647 15.6892 22.4243 15.4393 22.1744C15.1894 21.9245 15.049 21.5856 15.049 21.2322C15.049 20.8811 15.1747 20.5843 15.3145 20.2863Z" fill="white"/>
<path d="M24.1838 1.39863C23.7417 0.957593 23.1429 0.709624 22.5185 0.708984H11.4834C11.2915 0.709119 11.1015 0.74819 10.9251 0.823834C10.7487 0.899478 10.5894 1.01012 10.457 1.14908C10.3245 1.28803 10.2216 1.45241 10.1545 1.63226C10.0874 1.81212 10.0575 2.00372 10.0666 2.19547C10.0876 2.56325 10.2496 2.90876 10.5189 3.16011C10.7882 3.41146 11.1441 3.54929 11.5125 3.54492H14.8086V6.89648H12.2421C12.1387 6.89519 12.039 6.93463 11.9644 7.00627C11.8899 7.07791 11.8465 7.17599 11.8437 7.27934V9.59353C10.8594 9.63546 9.89618 9.89182 9.02124 10.3447C8.14631 10.7975 7.38081 11.436 6.77824 12.2154C6.1447 13.024 5.69784 13.9628 5.46969 14.9644C5.24154 15.966 5.23774 17.0056 5.45856 18.0088L8.45518 31.728C8.47425 31.8144 8.52222 31.8917 8.59117 31.9472C8.66011 32.0027 8.74592 32.033 8.83442 32.0332H23.9287C24.017 32.033 24.1026 32.0026 24.1713 31.9471C24.24 31.8917 24.2877 31.8144 24.3065 31.7281L27.3023 18.0093C27.5246 17.0066 27.5223 15.9672 27.2956 14.9655C27.069 13.9638 26.6235 13.0247 25.9912 12.2154C25.3848 11.4415 24.6193 10.807 23.7463 10.3546C22.8734 9.90228 21.9135 9.64272 20.9316 9.59353V7.27966C20.9316 7.06606 20.7346 6.89681 20.5211 6.89681H17.9023V3.54492H21.426C21.7048 3.54429 21.9809 3.59885 22.2385 3.70544C22.4961 3.81204 22.73 3.96856 22.9268 4.16599L26.2804 7.50653C26.5511 7.76481 26.9116 7.9079 27.2857 7.90564C27.6599 7.90337 28.0185 7.75594 28.2861 7.49442C28.5507 7.22855 28.6993 6.86868 28.6992 6.49356C28.6991 6.11844 28.5504 5.75864 28.2857 5.49289L24.1838 1.39863ZM23.6173 31.2598H9.14586L8.84022 29.8418H23.9231L23.6173 31.2598ZM20.1582 7.66992V9.60352H15.1115C15.0089 9.60352 14.9106 9.64426 14.8381 9.71678C14.7655 9.78931 14.7248 9.88767 14.7248 9.99023C14.7248 10.0928 14.7655 10.1912 14.8381 10.2637C14.9106 10.3362 15.0089 10.377 15.1115 10.377L20.7912 10.371C21.6786 10.3968 22.5493 10.6186 23.3409 11.0205C24.1325 11.4225 24.8254 11.9945 25.3699 12.6957C25.9338 13.4127 26.3317 14.2457 26.5352 15.1348C26.7388 16.0239 26.7428 16.9471 26.547 17.8379L24.092 29.0684H8.67136L6.21698 17.8358C6.02106 16.9441 6.02493 16.02 6.22831 15.13C6.43169 14.2399 6.82954 13.4059 7.39332 12.6877C7.93817 11.9872 8.63135 11.416 9.4231 11.0151C10.2148 10.6142 11.0855 10.3935 11.9726 10.369C12.0339 10.3672 12.0947 10.377 12.1565 10.377H13.4705C13.573 10.377 13.6714 10.3362 13.7439 10.2637C13.8164 10.1912 13.8572 10.0928 13.8572 9.99023C13.8572 9.88767 13.8164 9.78931 13.7439 9.71678C13.6714 9.64426 13.573 9.60352 13.4705 9.60352H12.6172V7.66992H20.1582ZM15.582 6.89648V3.54492H17.1289V6.89648H15.582ZM27.7394 6.94747C27.6793 7.00688 27.608 7.05381 27.5296 7.08554C27.4512 7.11728 27.3674 7.1332 27.2828 7.13238C27.1992 7.13509 27.1158 7.12121 27.0375 7.09155C26.9593 7.0619 26.8876 7.01705 26.8268 6.95958L23.4728 3.61814C23.2044 3.34895 22.8853 3.13556 22.534 2.99024C22.1827 2.84493 21.8061 2.77059 21.426 2.77148H11.5125C11.1573 2.77148 10.855 2.4973 10.8392 2.1595C10.8349 2.07222 10.8484 1.98497 10.8788 1.90305C10.9093 1.82113 10.956 1.74624 11.0163 1.68293C11.0765 1.61962 11.149 1.56921 11.2293 1.53474C11.3096 1.50027 11.3961 1.48247 11.4834 1.48242H22.5185C22.9383 1.4833 23.3407 1.65011 23.6381 1.94648L27.7388 6.03971C27.8588 6.16024 27.9262 6.32337 27.9263 6.49346C27.9265 6.66354 27.8593 6.82676 27.7394 6.94747Z" fill="white"/>
<path d="M10.1507 11.7834C9.91356 11.9449 9.6866 12.1208 9.47109 12.3102C9.39406 12.3779 9.34709 12.4735 9.34052 12.5758C9.33394 12.6782 9.3683 12.7789 9.43602 12.856C9.50375 12.933 9.5993 12.98 9.70166 12.9865C9.80401 12.9931 9.90479 12.9588 9.98181 12.891C10.1734 12.7227 10.3752 12.5662 10.5861 12.4226C10.6283 12.3942 10.6645 12.3576 10.6926 12.3151C10.7206 12.2726 10.74 12.225 10.7497 12.175C10.7593 12.1249 10.7589 12.0735 10.7486 12.0236C10.7383 11.9738 10.7182 11.9264 10.6895 11.8843C10.6608 11.8422 10.6241 11.8062 10.5815 11.7783C10.5389 11.7504 10.4911 11.7313 10.4411 11.7219C10.391 11.7125 10.3396 11.7131 10.2897 11.7237C10.2399 11.7342 10.1926 11.7545 10.1507 11.7834Z" fill="white"/>
<path d="M9.23987 13.0596C9.20062 13.0274 9.1554 13.0032 9.1068 12.9885C9.0582 12.9737 9.00717 12.9687 8.95663 12.9737C8.90608 12.9786 8.85701 12.9935 8.81222 13.0175C8.76743 13.0414 8.72779 13.0739 8.69557 13.1132C7.98173 13.984 7.48704 15.0132 7.25298 16.1146C7.24206 16.1645 7.24111 16.216 7.25019 16.2662C7.25928 16.3164 7.27821 16.3644 7.30591 16.4072C7.3336 16.4501 7.3695 16.4871 7.41155 16.516C7.45359 16.5449 7.50094 16.5652 7.55088 16.5758C7.60081 16.5863 7.65234 16.5869 7.70248 16.5774C7.75263 16.5679 7.80041 16.5486 7.84306 16.5206C7.88572 16.4926 7.9224 16.4564 7.95101 16.4141C7.97961 16.3719 7.99956 16.3244 8.00972 16.2743C8.21803 15.2944 8.65824 14.3786 9.29343 13.6039C9.3585 13.5246 9.3894 13.4227 9.37936 13.3206C9.36932 13.2186 9.31914 13.1247 9.23987 13.0596Z" fill="white"/>
</svg>
