<svg width="32" height="33" viewBox="0 0 32 33" fill="none" xmlns="http://www.w3.org/2000/svg">
<path d="M6.90206 28.1797V28.1844H23.4834C24.755 28.1844 25.8572 27.282 26.1096 26.037L28.13 18.9288L28.136 18.9039C28.2919 18.1145 28.0883 17.305 27.5774 16.6833C27.0664 16.0616 26.3119 15.7051 25.5072 15.7051H24.4376V5.85234C24.4376 5.76934 24.4046 5.68977 24.3458 5.63115L19.9066 1.20121C19.8556 1.15033 19.7886 1.11865 19.7169 1.11146L19.6243 1.10221C19.614 1.10115 19.6036 1.10065 19.5932 1.10065H13.4265C12.2853 1.10065 11.3569 2.02908 11.3569 3.17027V3.35746H10.8822C9.741 3.35746 8.81256 4.2859 8.81256 5.42708V7.07059H6.63756C5.07981 7.07059 3.81256 8.3379 3.81256 9.89565V24.918C3.81256 26.6597 5.18294 28.0875 6.90212 28.1797L6.90206 28.1797ZM27.0945 17.0801C27.4836 17.5536 27.6402 18.1691 27.5252 18.7706L25.5051 25.878L25.4991 25.9029C25.3095 26.8627 24.4617 27.5593 23.4834 27.5593H9.00594C9.61406 27.1159 10.0663 26.4625 10.2541 25.685L12.8301 17.9372L12.8376 17.9107C13.0582 16.98 13.8803 16.33 14.8367 16.33H25.5072C26.1242 16.33 26.7027 16.6034 27.0945 17.08V17.0801ZM17.4447 4.42327L20.8344 7.8059H18.8894C18.0928 7.8059 17.4447 7.15784 17.4447 6.36127V4.42327ZM19.989 2.16646L23.3787 5.54909H21.4336C20.6371 5.54909 19.989 4.90102 19.989 4.10446V2.16646ZM11.9818 3.17027C11.9818 2.37371 12.6299 1.72565 13.4264 1.72565H19.364V4.10452C19.364 5.24571 20.2924 6.17415 21.4336 6.17415H23.8125V15.7051H21.8932V8.10915C21.8932 8.02615 21.8602 7.94659 21.8014 7.88796L17.3622 3.45802C17.3112 3.40715 17.2442 3.3754 17.1725 3.36827L17.0799 3.35902C17.0696 3.35796 17.0592 3.35746 17.0489 3.35746H11.9819V3.17027H11.9818ZM9.4375 5.42708C9.4375 4.63052 10.0856 3.98246 10.8821 3.98246H16.8197V6.36127C16.8197 7.50246 17.7482 8.4309 18.8894 8.4309H21.2682V15.705H14.8367C13.594 15.705 12.5253 16.5463 12.2327 17.7528L11.0252 21.3846H11.0001C10.1385 21.3846 9.43756 20.6837 9.43756 19.8221V5.42708H9.4375ZM4.4375 9.89565C4.4375 8.68252 5.42444 7.69559 6.6375 7.69559H8.8125V19.8221C8.8125 20.9677 9.69781 21.9097 10.8201 22.0016L9.65675 25.5007L9.64919 25.5272C9.36556 26.7237 8.30869 27.5594 7.07894 27.5594C5.62244 27.5594 4.4375 26.3745 4.4375 24.918V9.89565Z" fill="white"/>
<path d="M15.971 12.6852H15.0926C14.92 12.6852 14.7801 12.8252 14.7801 12.9977C14.7801 13.1703 14.92 13.3102 15.0926 13.3102H15.971C16.1436 13.3102 16.2835 13.1703 16.2835 12.9977C16.2835 12.8252 16.1436 12.6852 15.971 12.6852Z" fill="white"/>
<path d="M11.7068 11.1138H18.9989C19.1715 11.1138 19.3114 10.9739 19.3114 10.8013C19.3114 10.6288 19.1715 10.4888 18.9989 10.4888H11.7068C11.5342 10.4888 11.3943 10.6288 11.3943 10.8013C11.3943 10.9739 11.5342 11.1138 11.7068 11.1138Z" fill="white"/>
<path d="M11.7068 13.3102H13.9798C14.1524 13.3102 14.2923 13.1703 14.2923 12.9977C14.2923 12.8252 14.1524 12.6852 13.9798 12.6852H11.7068C11.5342 12.6852 11.3943 12.8252 11.3943 12.9977C11.3943 13.1703 11.5342 13.3102 11.7068 13.3102Z" fill="white"/>
</svg>
