<svg width="14" height="25" viewBox="0 0 14 25" fill="none" xmlns="http://www.w3.org/2000/svg">
<g clip-path="url(#clip0_84_2183)">
<path d="M2.9375 25H10.25C11.5906 25 12.6875 23.875 12.6875 22.5V15C12.6875 13.125 10.9406 12 9.55937 11.1667C8.70625 10.625 7.8125 10.0833 7.8125 9.58333V7.08333C7.8125 6.83333 7.65 6.66667 7.40625 6.66667V5.41667H9.72188C10.0875 5.66667 10.4938 5.83333 10.9406 5.95833L12.2 6.25L12.3625 5.41667L11.1031 5.125C10.0063 4.875 9.23438 4 9.07188 2.91667H13.0938C13.3375 2.91667 13.5 2.75 13.5 2.5V0.416667C13.5 0.166667 13.3375 0 13.0938 0H4.15625C1.9625 0 1.71875 1.66667 1.71875 2.91667V4.58333C1.71875 4.83333 1.88125 5 2.125 5H3.75V6.66667C3.50625 6.66667 3.34375 6.83333 3.34375 7.08333C3.34375 7.45833 3.38438 7.79167 3.46563 8.08333C3.54688 8.45833 3.5875 8.83333 3.54688 9.20833C3.46562 10 3.18125 10.75 2.89688 11.4167C1.59688 14.75 0.5 17.7917 0.5 21.2083V22.5C0.5 23.875 1.59688 25 2.9375 25ZM12.6875 2.08333H11.875V0.833333H12.6875V2.08333ZM8.25938 3.125C8.34063 3.66667 8.54375 4.16667 8.86875 4.58333H7.40625C7.40625 3.95833 7.77188 3.41667 8.25938 3.125ZM4.15625 4.16667H2.53125V2.91667C2.53125 1.375 2.9375 0.833333 4.15625 0.833333H11.0625V2.08333H8.625C8.54375 2.08333 8.4625 2.125 8.38125 2.16667C7.36562 2.45833 6.59375 3.41667 6.59375 4.58333V6.66667H4.5625V4.58333C4.5625 4.33333 4.4 4.16667 4.15625 4.16667ZM1.3125 21.2083C1.3125 17.9167 2.36875 15 3.62812 11.75C3.9125 11.0417 4.2375 10.2083 4.31875 9.33333C4.4 8.83333 4.31875 8.375 4.2375 7.95833C4.19687 7.79167 4.19688 7.66667 4.15625 7.5H7V9.58333C7 10.5417 7.975 11.1667 9.1125 11.875C10.4125 12.6667 11.875 13.5833 11.875 15V22.5C11.875 23.4167 11.1438 24.1667 10.25 24.1667H2.9375C2.04375 24.1667 1.3125 23.4167 1.3125 22.5V21.2083Z" fill="white"/>
<path d="M7 22.5C9.23438 22.5 11.0625 20.4583 11.0625 17.9166C11.0625 15.375 9.23438 13.3333 7 13.3333C4.76562 13.3333 2.9375 15.375 2.9375 17.9166C2.9375 20.4583 4.76562 22.5 7 22.5ZM7 14.1666C8.7875 14.1666 10.25 15.8333 10.25 17.9166C10.25 20 8.7875 21.6666 7 21.6666C5.2125 21.6666 3.75 20 3.75 17.9166C3.75 15.8333 5.2125 14.1666 7 14.1666Z" fill="white"/>
</g>
<defs>
<clipPath id="clip0_84_2183">
<rect width="13" height="25" fill="white" transform="translate(0.5)"/>
</clipPath>
</defs>
</svg>
