<svg width="32" height="31" viewBox="0 0 32 31" fill="none" xmlns="http://www.w3.org/2000/svg">
<path d="M27.1002 17.1423C27.1002 16.8749 26.8832 16.6579 26.6158 16.6579H19.7738C19.3988 15.0747 17.2967 13.8912 16.4844 13.4875V12.4613C16.4844 12.1939 16.2674 11.9769 16 11.9769C15.7326 11.9769 15.5156 12.1939 15.5156 12.4613V13.4875C14.7033 13.8912 12.6011 15.0747 12.2262 16.6579H5.38419C5.11681 16.6579 4.89981 16.8749 4.89981 17.1423C4.89981 20.2847 7.2856 23.0204 10.783 24.4079H8.0078C7.74043 24.4079 7.52343 24.6249 7.52343 24.8923V27.8794C7.52343 28.1468 7.74043 28.3638 8.0078 28.3638H23.9922C24.2596 28.3638 24.4766 28.1468 24.4766 27.8794V24.8923C24.4766 24.6249 24.2596 24.4079 23.9922 24.4079H21.217C24.7144 23.0202 27.1002 20.2847 27.1002 17.1423ZM16 14.3286C16.821 14.7311 18.3499 15.6613 18.759 16.6579H13.241C13.65 15.6613 15.179 14.7311 16 14.3286ZM23.5078 25.3767V27.3951H8.49218V25.3767H23.5078ZM16 24.4079C10.6406 24.4079 6.23983 21.4077 5.89084 17.6267H26.1091C25.7601 21.4077 21.3594 24.4079 16 24.4079Z" fill="white"/>
<path d="M16 11.4926C17.5691 11.4926 18.8457 10.216 18.8457 8.64685C18.8457 7.25621 16.6704 3.34173 16.4224 2.89998C16.3366 2.74741 16.1751 2.65271 16 2.65271C15.8249 2.65271 15.6634 2.74741 15.5776 2.89998C15.3296 3.34173 13.1543 7.25621 13.1543 8.64685C13.1543 10.216 14.4309 11.4926 16 11.4926ZM15.1039 9.62771C15.1039 9.3228 15.5178 8.371 16 7.43131C16.4822 8.371 16.8961 9.32304 16.8961 9.62771C16.8961 10.1218 16.4941 10.5238 16 10.5238C15.5059 10.5238 15.1039 10.1218 15.1039 9.62771ZM16 4.14822C16.853 5.75198 17.877 7.91617 17.877 8.64685C17.877 8.836 17.8481 9.01885 17.7958 9.19129C17.5398 8.19275 16.629 6.53716 16.4224 6.16927C16.3366 6.01669 16.1751 5.922 16 5.922C15.8249 5.922 15.6634 6.01669 15.5776 6.16927C15.371 6.53716 14.4602 8.19251 14.2042 9.19129C14.1519 9.01885 14.123 8.836 14.123 8.64685C14.123 7.91641 15.1473 5.75223 16 4.14822Z" fill="white"/>
</svg>
