<svg width="32" height="25" viewBox="0 0 32 25" fill="none" xmlns="http://www.w3.org/2000/svg">
<g clip-path="url(#clip0_84_2186)">
<path d="M6.94316 3.19837C6.10547 3.81852 5.44621 4.65674 5.03701 5.62239C4.92472 5.88698 5.04665 6.19324 5.30912 6.30609C5.56504 6.41859 5.87504 6.29915 5.98733 6.03178C6.3242 5.23731 6.86635 4.54806 7.5549 4.03832C7.78499 3.86783 7.83458 3.54178 7.66581 3.31017C7.49668 3.07788 7.1736 3.02787 6.94351 3.19837H6.94316Z" fill="white"/>
<path d="M5.15 8.33357C5.43535 8.33357 5.66666 8.10037 5.66666 7.81272C5.66666 7.52506 5.43535 7.29187 5.15 7.29187C4.86465 7.29187 4.63333 7.52506 4.63333 7.81272C4.63333 8.10037 4.86465 8.33357 5.15 8.33357Z" fill="white"/>
<path d="M30.9833 13.0212H28.7145C29.2783 11.3951 29.5477 9.70201 29.4988 7.94015C29.4988 3.5619 25.9954 0 21.6895 0C19.5116 0 17.4704 0.904886 16 2.5025C14.5296 0.904886 12.4884 0 10.3105 0C6.00457 0 2.50122 3.5619 2.50157 7.92557C2.45231 9.69333 2.72236 11.3913 3.28759 13.0212H1.01667C0.731467 13.0212 0.5 13.2545 0.5 13.542C0.5 13.8296 0.731467 14.0629 1.01667 14.0629H3.69334C5.42142 18.03 9.02052 21.5614 14.4748 24.6059C14.9453 24.8684 15.4727 25 16 25C16.5273 25 17.055 24.8684 17.5252 24.6059C22.9819 21.5603 26.5813 18.0272 28.3087 14.0629H30.9833C31.2685 14.0629 31.5 13.8296 31.5 13.542C31.5 13.2545 31.2685 13.0212 30.9833 13.0212ZM17.0247 23.6944C16.393 24.0475 15.608 24.0479 14.9753 23.6944C9.8496 20.8336 6.48644 17.6498 4.80349 14.0629H7.39784C7.80567 14.0629 8.17629 13.8202 8.34231 13.4445L9.74523 10.2621L11.8519 16.2786C12.1653 17.2408 13.5941 17.1727 13.8262 16.1952L15.9507 7.98321L18.1982 18.5561C18.3908 19.5773 19.8836 19.6637 20.1891 18.6675L22.8124 10.7329L24.1785 13.4872C24.3545 13.8421 24.7089 14.0629 25.103 14.0629H27.1989C25.5167 17.6474 22.1525 20.8325 17.0251 23.6944H17.0247ZM27.6357 13.0212H25.1026L23.7366 10.267C23.5488 9.88882 23.1545 9.66138 22.7391 9.69367C22.3206 9.72354 21.9644 10.0024 21.8318 10.4034L19.2085 18.3377L16.961 7.7648C16.8587 7.28354 16.4619 6.95262 15.9735 6.94151C15.493 6.93873 15.0741 7.24326 14.9508 7.72001L12.8259 15.9317L10.7193 9.91486C10.5774 9.50999 10.2109 9.23776 9.78553 9.22074C9.36944 9.20338 8.97368 9.44644 8.80077 9.83847L7.39784 13.0208H4.36639C3.76843 11.4087 3.4853 9.71937 3.5349 7.9398C3.5349 4.13588 6.57428 1.04135 10.3105 1.04135C12.3785 1.04135 14.3046 1.98304 15.5953 3.6251C15.7909 3.87441 16.2094 3.87441 16.4051 3.6251C17.6954 1.98304 19.6215 1.04135 21.6899 1.04135C25.4261 1.04135 28.4654 4.13588 28.4658 7.95439C28.515 9.7277 28.2326 11.4125 27.636 13.0208L27.6357 13.0212Z" fill="white"/>
</g>
<defs>
<clipPath id="clip0_84_2186">
<rect width="31" height="25" fill="white" transform="translate(0.5)"/>
</clipPath>
</defs>
</svg>
