<svg width="30" height="31" viewBox="0 0 30 31" fill="none" xmlns="http://www.w3.org/2000/svg">
<path d="M13.8281 25.8125C14.087 25.8125 14.2969 25.6026 14.2969 25.3438C14.2969 25.0849 14.087 24.875 13.8281 24.875C13.5692 24.875 13.3594 25.0849 13.3594 25.3438C13.3594 25.6026 13.5692 25.8125 13.8281 25.8125Z" fill="white"/>
<path d="M22.5 17.3193V14.0938H22.7344C23.1695 14.0937 23.5868 13.9209 23.8945 13.6132C24.2021 13.3055 24.375 12.8882 24.375 12.4531C24.375 12.018 24.2021 11.6007 23.8945 11.293C23.5868 10.9854 23.1695 10.8125 22.7344 10.8125H20.3906V3.78125C20.3898 3.15989 20.1427 2.5642 19.7033 2.12482C19.2639 1.68545 18.6682 1.43828 18.0469 1.4375H11.7188C11.0974 1.43828 10.5017 1.68545 10.0623 2.12482C9.62295 2.5642 9.37578 3.15989 9.375 3.78125V5.65625H7.03125C6.59613 5.65625 6.17883 5.8291 5.87115 6.13678C5.56348 6.44445 5.39062 6.86175 5.39062 7.29688C5.39062 7.732 5.56348 8.1493 5.87115 8.45697C6.17883 8.76465 6.59613 8.9375 7.03125 8.9375H7.5V13.7018C4.28086 14.7617 2.0625 17.8918 2.0625 21.4402C2.0625 25.9186 5.55293 29.5625 9.84375 29.5625C11.0758 29.5607 12.2882 29.2539 13.3729 28.6695C13.9762 29.2483 14.7816 29.5687 15.6176 29.5625H24.2262C24.8119 29.5628 25.387 29.4064 25.8918 29.1094C26.3967 28.8125 26.8128 28.3858 27.0971 27.8737C27.3813 27.3615 27.5233 26.7827 27.5083 26.1972C27.4933 25.6116 27.3218 25.0408 27.0117 24.5439L22.5 17.3193ZM23.4375 12.4531C23.4375 12.6396 23.3634 12.8184 23.2316 12.9503C23.0997 13.0822 22.9209 13.1562 22.7344 13.1562H17.1094C16.9229 13.1562 16.7441 13.0822 16.6122 12.9503C16.4803 12.8184 16.4063 12.6396 16.4063 12.4531C16.4063 12.2666 16.4803 12.0878 16.6122 11.9559C16.7441 11.8241 16.9229 11.75 17.1094 11.75H22.7344C22.9209 11.75 23.0997 11.8241 23.2316 11.9559C23.3634 12.0878 23.4375 12.2666 23.4375 12.4531ZM10.3125 3.78125C10.3125 3.40829 10.4607 3.0506 10.7244 2.78688C10.9881 2.52316 11.3458 2.375 11.7188 2.375H18.0469C18.4198 2.375 18.7775 2.52316 19.0412 2.78688C19.305 3.0506 19.4531 3.40829 19.4531 3.78125V10.8125H17.1094C16.6743 10.8125 16.257 10.9854 15.9493 11.293C15.6416 11.6007 15.4688 12.018 15.4688 12.4531C15.4688 12.8882 15.6416 13.3055 15.9493 13.6132C16.257 13.9209 16.6743 14.0937 17.1094 14.0938H17.3437V17.3193L16.8979 18.033C15.9955 16.0057 14.3121 14.4002 12.1875 13.7018V8.9375H12.6563C13.0914 8.9375 13.5087 8.76465 13.8163 8.45697C14.124 8.1493 14.2969 7.732 14.2969 7.29688C14.2969 6.86175 14.124 6.44445 13.8163 6.13678C13.5087 5.8291 13.0914 5.65625 12.6563 5.65625H10.3125V3.78125ZM17.4557 23.1172C18.5227 23.1893 19.1994 22.618 19.8059 22.1047C20.3373 21.6541 20.7967 21.2615 21.5203 21.2803L24.3832 25.8711C24.4317 25.9414 24.4598 26.0237 24.4645 26.109C24.4692 26.1943 24.4502 26.2792 24.4096 26.3544C24.3691 26.4295 24.3085 26.492 24.2347 26.535C24.1609 26.5779 24.0766 26.5996 23.9912 26.5977H15.852C16.6526 25.5796 17.202 24.3872 17.4557 23.1172ZM6.32813 7.29688C6.32813 7.11039 6.4022 6.93155 6.53407 6.79969C6.66593 6.66783 6.84477 6.59375 7.03125 6.59375H12.6563C12.8427 6.59375 13.0216 6.66783 13.1534 6.79969C13.2853 6.93155 13.3594 7.11039 13.3594 7.29688C13.3594 7.48336 13.2853 7.6622 13.1534 7.79406C13.0216 7.92592 12.8427 8 12.6563 8H7.03125C6.84477 8 6.66593 7.92592 6.53407 7.79406C6.4022 7.6622 6.32813 7.48336 6.32813 7.29688ZM3 21.4402C3 18.2475 5.01973 15.4449 7.92949 14.5549C7.94355 14.5549 9.375 14.5625 9.375 14.5625C9.49932 14.5625 9.61855 14.5131 9.70646 14.4252C9.79436 14.3373 9.84375 14.2181 9.84375 14.0938C9.84375 13.9694 9.79436 13.8502 9.70646 13.7623C9.61855 13.6744 9.49932 13.625 9.375 13.625H8.4375V12.6875H9.375C9.49932 12.6875 9.61855 12.6381 9.70646 12.5502C9.79436 12.4623 9.84375 12.3431 9.84375 12.2188C9.84375 12.0944 9.79436 11.9752 9.70646 11.8873C9.61855 11.7994 9.49932 11.75 9.375 11.75H8.4375V10.8125H8.90625C9.03057 10.8125 9.1498 10.7631 9.23771 10.6752C9.32561 10.5873 9.375 10.4681 9.375 10.3438C9.375 10.2194 9.32561 10.1002 9.23771 10.0123C9.1498 9.92439 9.03057 9.875 8.90625 9.875H8.4375V8.9375H11.25V14.0498C11.2501 14.1522 11.2837 14.2517 11.3457 14.3332C11.4077 14.4147 11.4947 14.4736 11.5934 14.501C14.5928 15.3336 16.6875 18.1865 16.6875 21.4402C16.6875 25.4023 13.6172 28.625 9.84375 28.625C6.07031 28.625 3 25.4023 3 21.4402ZM26.2758 27.4168C26.0753 27.7848 25.7786 28.0915 25.4174 28.3041C25.0562 28.5166 24.6441 28.6272 24.225 28.6238H15.6176C15.1098 28.6276 14.6152 28.4628 14.2113 28.1551C14.4971 27.9488 14.7686 27.7235 15.024 27.4807C15.1409 27.5116 15.2611 27.5285 15.382 27.5311H24.0035C24.2531 27.529 24.4977 27.4611 24.7126 27.3343C24.9275 27.2074 25.1051 27.0261 25.2275 26.8086C25.4701 26.3703 25.4561 25.84 25.1848 25.3795L22.1912 20.5859C22.1546 20.5274 22.1056 20.4777 22.0475 20.4403C21.9895 20.4029 21.9239 20.3788 21.8555 20.3697C20.5975 20.1992 19.8568 20.8338 19.2 21.3904C18.6768 21.8334 18.2408 22.1938 17.5887 22.1803C17.6104 21.9359 17.625 21.6898 17.625 21.4402C17.6235 20.6673 17.5152 19.8984 17.3033 19.1551L18.1236 17.8443H19.2187C19.3431 17.8443 19.4623 17.7949 19.5502 17.707C19.6381 17.6191 19.6875 17.4999 19.6875 17.3756C19.6875 17.2513 19.6381 17.132 19.5502 17.0441C19.4623 16.9562 19.3431 16.9068 19.2187 16.9068H18.2812V15.9688H18.75C18.8743 15.9688 18.9935 15.9194 19.0815 15.8315C19.1694 15.7435 19.2187 15.6243 19.2187 15.5C19.2187 15.3757 19.1694 15.2565 19.0815 15.1685C18.9935 15.0806 18.8743 15.0312 18.75 15.0312H18.2812V14.0938H21.5625V17.4535C21.5625 17.5411 21.5871 17.627 21.6334 17.7014L26.2143 25.0402C26.4387 25.3939 26.5629 25.8019 26.5737 26.2206C26.5846 26.6393 26.4816 27.0531 26.2758 27.418V27.4168Z" fill="white"/>
<path d="M15.2279 24.0066C15.8966 22.4352 15.9239 20.6644 15.3041 19.073C15.2778 19.0054 15.2362 18.9448 15.1825 18.896C15.1288 18.8472 15.0645 18.8115 14.9947 18.7918C12.4324 17.9662 10.0388 19.7504 9.48162 20.5596C8.99295 21.1889 6.71189 22.6291 4.64998 21.4021C4.34119 21.2205 3.92341 21.4848 3.95623 21.8416C4.15486 25.1193 6.73826 27.6875 9.84373 27.6875C10.8336 27.6858 11.8057 27.4241 12.6627 26.9287C12.7177 26.8988 12.7662 26.8582 12.8052 26.8093C12.8443 26.7604 12.8732 26.7042 12.8902 26.644C12.9071 26.5837 12.9119 26.5207 12.9041 26.4586C12.8963 26.3964 12.8762 26.3365 12.8449 26.2823C12.8136 26.2281 12.7717 26.1807 12.7218 26.143C12.6719 26.1052 12.6149 26.0778 12.5542 26.0624C12.4936 26.047 12.4304 26.0439 12.3685 26.0533C12.3067 26.0627 12.2473 26.0845 12.1939 26.1172C11.4793 26.53 10.669 26.7482 9.84373 26.75C7.48826 26.75 5.48611 24.9717 4.99627 22.5764C7.47537 23.5074 9.89881 21.6025 10.1947 21.1701C10.5164 20.6428 12.5344 19.0725 14.5113 19.6373C14.9579 20.9437 14.9063 22.3691 14.3666 23.6398C14.3402 23.6967 14.3255 23.7583 14.3234 23.821C14.3212 23.8837 14.3317 23.9462 14.3541 24.0047C14.3765 24.0633 14.4105 24.1168 14.454 24.162C14.4974 24.2072 14.5495 24.2432 14.6072 24.2679C14.6648 24.2926 14.7268 24.3055 14.7896 24.3058C14.8523 24.3061 14.9144 24.2938 14.9723 24.2697C15.0302 24.2455 15.0826 24.21 15.1265 24.1652C15.1704 24.1205 15.2049 24.0673 15.2279 24.009V24.0066Z" fill="white"/>
</svg>
