<svg width="15" height="14" viewBox="0 0 15 14" fill="none" xmlns="http://www.w3.org/2000/svg">
<path d="M8.63158 0H0V14H8.63158V0ZM3.89474 11.3421H3V9.71053H3.89474V11.3421ZM3.89474 8.05263H3V6.42105H3.89474V8.05263ZM3.89474 4.78947H3V3.15789H3.89474V4.78947ZM6.60526 11.3421H5.71053V9.71053H6.60526V11.3421ZM6.60526 8.05263H5.71053V6.42105H6.60526V8.05263ZM6.60526 4.78947H5.71053V3.15789H6.60526V4.78947Z" fill="white"/>
<path d="M14.5514 12.2366V5.73657H9.36719V13.9997H12.7882C13.7619 13.9997 14.5514 13.2103 14.5514 12.2366ZM12.5514 11.3681H10.8146V10.4997H12.5514V11.3681ZM12.5514 9.18394H10.8146V8.2892H12.5514V9.18394Z" fill="white"/>
</svg>
