<svg width="15" height="15" viewBox="0 0 15 15" fill="none" xmlns="http://www.w3.org/2000/svg">
<path d="M10.4019 11.6856C10.209 11.7403 10.0134 11.7657 9.80912 11.7657C8.16631 11.7657 6.107 10.2008 4.889 8.74696C3.65131 7.26908 3.06068 5.75446 3.26762 4.59159C3.28075 4.54827 3.80269 3.23446 4.973 3.23446C5.04431 3.23446 5.11563 3.23927 5.18869 3.24846C5.24294 3.25765 5.67387 3.34515 5.79244 3.7284L6.44344 5.68008L6.42069 5.72208C6.42112 5.72908 6.41412 5.75096 6.40231 5.76977L5.55925 6.61546L5.65638 6.8119C5.91406 7.33515 6.66744 8.62096 8.09981 9.26627L8.29231 9.3529L9.00631 8.63846C9.05312 8.60652 9.11044 8.58858 9.15725 8.58858L11.2778 9.11577C11.2852 9.11752 11.7573 9.25271 11.7678 9.83065C11.7971 10.2043 11.7241 11.1471 10.4019 11.6856ZM14.5621 3.39852C14.332 2.07115 12.9285 0.667646 11.6016 0.437521C8.86719 0.010084 6.13281 0.010084 3.39844 0.437521C2.07106 0.667646 0.667562 2.07115 0.437438 3.39852C0.0104375 6.1329 0.0104375 8.86727 0.437438 11.6016C0.667562 12.929 2.07106 14.3325 3.39844 14.5622C6.13281 14.9896 8.86719 14.9896 11.6016 14.5622C12.9285 14.3325 14.332 12.929 14.5621 11.6016C14.9896 8.86727 14.9896 6.1329 14.5621 3.39852Z" fill="white"/>
</svg>
